<svg width="32" height="33" viewBox="0 0 32 33" fill="none" xmlns="http://www.w3.org/2000/svg">
<path fill-rule="evenodd" clip-rule="evenodd" d="M28.5 14.5661C28.5 14.9409 28.2206 15.1908 27.875 15.1908H23.5V18.9391H27.875C28.2206 18.9391 28.5 19.2514 28.5 19.5638C28.5 19.9386 28.2206 20.1885 27.875 20.1885H23.5V23.9367H27.875C28.2206 23.9367 28.5 24.2491 28.5 24.5614C28.5 24.9363 28.2206 25.1862 27.875 25.1862H23.5V27.0603C23.5 27.4351 23.2206 27.685 22.875 27.685C22.53 27.685 22.25 27.4351 22.25 27.0603V25.1862H16.625V27.0603C16.625 27.4351 16.3456 27.685 16 27.685C15.655 27.685 15.375 27.4351 15.375 27.0603V25.1862H9.75V27.0603C9.75 27.4351 9.47062 27.685 9.125 27.685C8.78 27.685 8.5 27.4351 8.5 27.0603V25.1862H4.125C3.78 25.1862 3.5 24.9363 3.5 24.5614C3.5 24.2491 3.78 23.9367 4.125 23.9367H8.5V20.1885H4.125C3.78 20.1885 3.5 19.9386 3.5 19.5638C3.5 19.2514 3.78 18.9391 4.125 18.9391H8.5V15.1908H4.125C3.78 15.1908 3.5 14.9409 3.5 14.5661C3.5 14.2537 3.78 13.9414 4.125 13.9414H8.5V12.0672C8.5 11.7549 8.78 11.4425 9.125 11.4425C9.47062 11.4425 9.75 11.7549 9.75 12.0672V13.9414H15.375V12.0672C15.375 11.7549 15.655 11.4425 16 11.4425C16.3456 11.4425 16.625 11.7549 16.625 12.0672V13.9414H22.25V12.0672C22.25 11.7549 22.53 11.4425 22.875 11.4425C23.2206 11.4425 23.5 11.7549 23.5 12.0672V13.9414H27.875C28.2206 13.9414 28.5 14.2537 28.5 14.5661ZM22.25 18.9391H16.625V15.1908H22.25V18.9391ZM22.25 23.9367H16.625V20.1885H22.25V23.9367ZM15.375 23.9367H9.75V20.1885H15.375V23.9367ZM15.375 18.9391H9.75V15.1908H15.375V18.9391Z" fill="white"/>
<path fill-rule="evenodd" clip-rule="evenodd" d="M26 2.69659H30.375C30.7206 2.69659 31 3.00895 31 3.3213V29.5591C31 29.934 30.7206 30.1838 30.375 30.1838H1.625C1.28 30.1838 1 29.934 1 29.5591V3.3213C1 3.00895 1.28 2.69659 1.625 2.69659H6V0.822464C6 0.510109 6.28 0.197754 6.625 0.197754H10.375C10.7206 0.197754 11 0.510109 11 0.822464V2.69659H21V0.822464C21 0.510109 21.28 0.197754 21.625 0.197754H25.375C25.7206 0.197754 26 0.510109 26 0.822464V2.69659ZM29.75 10.1931V28.9344H2.25V10.1931H29.75ZM6 5.82014V3.94601H2.25V8.9437H29.75V3.94601H26V5.82014C26 6.19497 25.7206 6.44485 25.375 6.44485H21.625C21.28 6.44485 21 6.19497 21 5.82014V3.94601H11V5.82014C11 6.19497 10.7206 6.44485 10.375 6.44485H6.625C6.28 6.44485 6 6.19497 6 5.82014ZM9.75 5.19543H7.25V1.44717H9.75V5.19543ZM24.75 5.19543H22.25V1.44717H24.75V5.19543Z" fill="white"/>
</svg>
