<svg width="47" height="47" viewBox="0 0 47 47" fill="none" xmlns="http://www.w3.org/2000/svg">
<path fill-rule="evenodd" clip-rule="evenodd" d="M23.5 46.0479C35.9264 46.0479 46 35.9788 46 23.5581C46 11.1374 35.9264 1.06836 23.5 1.06836C11.0736 1.06836 1 11.1374 1 23.5581C1 35.9788 11.0736 46.0479 23.5 46.0479Z" stroke="#DFDFDF"/>
<path opacity="0.7" fill-rule="evenodd" clip-rule="evenodd" d="M27.2577 18.1074C26.7966 17.9728 26.2664 17.883 25.7823 17.883C25.1829 17.883 23.8919 18.2644 23.8919 19.0046V20.7767H26.958V23.76H23.8919V31.9922H20.8028V23.76H19.2812V20.7767H20.8028V19.2738C20.8028 17.0082 21.8632 15.124 24.4221 15.124C25.2982 15.124 26.8658 15.1689 27.7188 15.4605L27.2577 18.1074Z" fill="#3D3D3D"/>
</svg>
