<svg width="47" height="47" viewBox="0 0 47 47" fill="none" xmlns="http://www.w3.org/2000/svg">
<path fill-rule="evenodd" clip-rule="evenodd" d="M23.5 46.0479C35.9264 46.0479 46 35.9788 46 23.5581C46 11.1374 35.9264 1.06836 23.5 1.06836C11.0736 1.06836 1 11.1374 1 23.5581C1 35.9788 11.0736 46.0479 23.5 46.0479Z" stroke="#DFDFDF"/>
<path opacity="0.7" fill-rule="evenodd" clip-rule="evenodd" d="M29.7494 15.124H15.8444C15.0344 15.124 14.3594 15.7988 14.3594 16.6084V20.7411H19.9788C20.8225 20.1339 21.7169 19.611 22.7969 19.611C23.8431 19.611 24.7881 20.1339 25.615 20.7411H31.2344V16.6084C31.2344 15.7988 30.5594 15.124 29.7494 15.124ZM30.1038 19.0374C30.1038 19.3579 29.8506 19.6278 29.53 19.6278H27.3194C26.9987 19.6278 26.7288 19.3579 26.7288 19.0374V16.8277C26.7288 16.5072 26.9987 16.2542 27.3194 16.2542H29.53C29.8506 16.2542 30.1038 16.5072 30.1038 16.8277V19.0374ZM25.615 24.1148C25.615 22.5629 24.3494 21.3146 22.7969 21.3146C21.2444 21.3146 19.9788 22.5629 19.9788 24.1148C19.9788 25.6666 21.2444 26.9317 22.7969 26.9317C24.3494 26.9317 25.615 25.6666 25.615 24.1148ZM27.1 23.0015C27.2013 23.3388 27.235 23.6931 27.235 24.0473C27.235 26.51 25.2437 28.5005 22.7969 28.5005C20.35 28.5005 18.3588 26.51 18.3588 24.0473C18.3588 23.6931 18.3925 23.3388 18.4938 23.0015H14.3594V30.5078C14.3594 31.3175 15.0344 31.9922 15.8444 31.9922H29.7494C30.5594 31.9922 31.2344 31.3175 31.2344 30.5078V23.0015H27.1Z" fill="#3D3D3D"/>
</svg>
