<svg width="64" height="25" viewBox="0 0 64 25" fill="none" xmlns="http://www.w3.org/2000/svg">
<path fill-rule="evenodd" clip-rule="evenodd" d="M0.259498 0.392171C0.0864986 0.566216 0 0.778935 0 1.03033V11.589V17.9997C0 18.2511 0.0864986 18.4638 0.259498 18.6379C0.432498 18.8119 0.643939 18.8989 0.893828 18.8989C1.14372 18.8989 1.35516 18.8119 1.52816 18.6379C1.70116 18.4638 1.78766 18.2511 1.78766 17.9997V11.589C1.80688 10.8929 1.96065 10.2402 2.24899 9.63104C2.53732 9.02188 2.91215 8.49492 3.37348 8.05014C3.83481 7.60535 4.37303 7.25243 4.98814 6.99137C5.60325 6.7303 6.25679 6.59977 6.94879 6.59977C7.66001 6.59977 8.32798 6.73513 8.9527 7.00587C9.57742 7.27661 10.1252 7.64887 10.5962 8.12266C11.0671 8.59645 11.4372 9.14758 11.7063 9.77608C11.9754 10.4046 12.1099 11.0766 12.1099 11.7921V17.9997C12.1099 18.2511 12.1964 18.4638 12.3694 18.6379C12.5424 18.8119 12.7539 18.8989 13.0038 18.8989C13.2536 18.8989 13.4651 18.8119 13.6381 18.6379C13.8111 18.4638 13.8976 18.2511 13.8976 17.9997V11.7921C13.8976 10.8252 13.715 9.91629 13.3498 9.0654C12.9845 8.21451 12.4896 7.47483 11.8648 6.84633C11.2401 6.21783 10.5049 5.71987 9.65911 5.35244C8.81333 4.98501 7.9099 4.8013 6.94879 4.8013C5.91079 4.8013 4.9497 5.00919 4.06548 5.42496C3.18125 5.84074 2.42199 6.40638 1.78766 7.1219V1.03033C1.78766 0.778935 1.70116 0.566216 1.52816 0.392171C1.35516 0.218125 1.14372 0.131104 0.893828 0.131104C0.643939 0.131104 0.432498 0.218125 0.259498 0.392171ZM50.977 6.7237C51.4747 6.7237 51.8781 6.31767 51.8781 5.8168C51.8781 5.31594 51.4747 4.90991 50.977 4.90991C50.4794 4.90991 50.076 5.31594 50.076 5.8168C50.076 6.31767 50.4794 6.7237 50.977 6.7237ZM63.0509 6.7237C63.5485 6.7237 63.9519 6.31767 63.9519 5.8168C63.9519 5.31594 63.5485 4.90991 63.0509 4.90991C62.5533 4.90991 62.1499 5.31594 62.1499 5.8168C62.1499 6.31767 62.5533 6.7237 63.0509 6.7237ZM23.4574 4.83105C24.38 4.83105 25.2594 5.0196 26.0956 5.39669C26.9318 5.77378 27.667 6.2814 28.3013 6.91955C28.9357 7.55771 29.4403 8.30221 29.8151 9.15309C30.1899 10.004 30.3773 10.9128 30.3773 11.8797V18.0002C30.3773 18.2516 30.2908 18.4643 30.1178 18.6384C29.9448 18.8124 29.7334 18.8994 29.4835 18.8994C29.2336 18.8994 29.0222 18.8124 28.8492 18.6384C28.6762 18.4643 28.5897 18.2516 28.5897 18.0002V16.2308C27.9553 16.9463 27.1913 17.5603 26.2974 18.0727C25.4036 18.5852 24.4377 18.8414 23.3997 18.8414C22.4386 18.8414 21.54 18.6674 20.7038 18.3193C19.8677 17.9712 19.1324 17.4877 18.4981 16.8689C17.8637 16.2501 17.364 15.5153 16.9988 14.6644C16.6335 13.8135 16.4509 12.8853 16.4509 11.8797C16.4509 10.9128 16.6287 10.0088 16.9843 9.16759C17.34 8.32639 17.8301 7.59155 18.4548 6.96306C19.0796 6.33458 19.8196 5.8318 20.675 5.4547C21.5304 5.07761 22.4578 4.86973 23.4574 4.83105ZM18.2386 11.879C18.2386 12.5945 18.3731 13.2665 18.6422 13.895C18.9113 14.5235 19.2814 15.0746 19.7523 15.5484C20.2233 16.0222 20.7711 16.3945 21.3958 16.6652C22.0205 16.9359 22.6885 17.0713 23.3997 17.0713C24.0917 17.0713 24.7453 16.9408 25.3604 16.6797C25.9755 16.4186 26.5185 16.056 26.9894 15.5919C27.4604 15.1278 27.8352 14.5815 28.1139 13.953C28.3927 13.3245 28.5512 12.6332 28.5897 11.879C28.5897 11.1635 28.4551 10.4867 28.186 9.8485C27.9169 9.21034 27.5469 8.65438 27.0759 8.18059C26.605 7.70681 26.0524 7.33455 25.418 7.06382C24.7837 6.79308 24.1109 6.65771 23.3997 6.65771C22.6885 6.65771 22.0205 6.79308 21.3958 7.06382C20.7711 7.33455 20.2233 7.70681 19.7523 8.18059C19.2814 8.65438 18.9113 9.21034 18.6422 9.8485C18.3731 10.4867 18.2386 11.1635 18.2386 11.879ZM40.6003 18.8704C39.5239 18.8317 38.5435 18.5561 37.6593 18.0437C36.7751 17.5312 36.0158 16.9269 35.3815 16.2308V23.2214C35.3815 23.4728 35.295 23.6855 35.122 23.8595C34.949 24.0336 34.7376 24.1206 34.4877 24.1206C34.2378 24.1206 34.0263 24.0336 33.8533 23.8595C33.6803 23.6855 33.5938 23.4728 33.5938 23.2214V11.8217C33.5938 10.8162 33.7765 9.88795 34.1417 9.03708C34.5069 8.18621 35.0067 7.45138 35.641 6.83257C36.2753 6.21375 37.0106 5.73031 37.8467 5.38223C38.6829 5.03415 39.5815 4.86011 40.5426 4.86011C41.523 4.86011 42.436 5.04382 43.2818 5.41124C44.1276 5.77866 44.8628 6.28144 45.4875 6.91959C46.1122 7.55774 46.6072 8.29741 46.9724 9.13861C47.3376 9.97981 47.5202 10.8742 47.5202 11.8217C47.5202 12.7886 47.3328 13.6975 46.958 14.5484C46.5832 15.3992 46.0786 16.1437 45.4443 16.7819C44.8099 17.42 44.0747 17.9277 43.2385 18.3047C42.4024 18.6818 41.523 18.8704 40.6003 18.8704ZM35.3815 11.8212C35.4007 12.5754 35.5545 13.2715 35.8428 13.9097C36.1311 14.5479 36.506 15.099 36.9673 15.5631C37.4286 16.0272 37.9669 16.3898 38.582 16.6509C39.1971 16.9119 39.8506 17.0425 40.5426 17.0425C41.2538 17.0425 41.9266 16.9071 42.5609 16.6364C43.1953 16.3656 43.7479 15.9934 44.2188 15.5196C44.6898 15.0458 45.0598 14.4899 45.3289 13.8517C45.598 13.2135 45.7326 12.5367 45.7326 11.8212C45.7326 11.1057 45.598 10.4337 45.3289 9.80519C45.0598 9.1767 44.6898 8.62557 44.2188 8.15178C43.7479 7.678 43.1953 7.30574 42.5609 7.03501C41.9266 6.76427 41.2538 6.62891 40.5426 6.62891C39.8314 6.62891 39.1634 6.76427 38.5387 7.03501C37.914 7.30574 37.3662 7.678 36.8952 8.15178C36.4243 8.62557 36.0543 9.1767 35.7851 9.80519C35.516 10.4337 35.3815 11.1057 35.3815 11.8212ZM50.1024 9.2974C50.1024 9.04601 50.1889 8.8333 50.3619 8.65925C50.5349 8.48521 50.7464 8.39819 50.9962 8.39819C51.2461 8.39819 51.4576 8.48521 51.6306 8.65925C51.8036 8.8333 51.8901 9.04601 51.8901 9.2974V11.879C51.8901 12.5945 52.0246 13.2665 52.2937 13.895C52.5628 14.5235 52.9329 15.0746 53.4038 15.5484C53.8748 16.0221 54.4226 16.3944 55.0473 16.6651C55.672 16.9358 56.34 17.0712 57.0512 17.0712C57.7624 17.0712 58.4304 16.9358 59.0551 16.6651C59.6798 16.3944 60.2277 16.0221 60.6986 15.5484C61.1695 15.0746 61.5396 14.5235 61.8087 13.895C62.0778 13.2665 62.2123 12.5945 62.2123 11.879V9.2974C62.2123 9.04601 62.2988 8.8333 62.4718 8.65925C62.6448 8.48521 62.8563 8.39819 63.1062 8.39819C63.3561 8.39819 63.5675 8.48521 63.7405 8.65925C63.9135 8.8333 64 9.04601 64 9.2974V11.879C64 12.8459 63.8174 13.7548 63.4522 14.6056C63.0869 15.4565 62.592 16.1962 61.9673 16.8247C61.3425 17.4531 60.6073 17.9511 59.7615 18.3185C58.9157 18.6859 58.0123 18.8696 57.0512 18.8696C56.0901 18.8696 55.1867 18.6859 54.3409 18.3185C53.4951 17.9511 52.7599 17.4531 52.1352 16.8247C51.5104 16.1962 51.0155 15.4565 50.6502 14.6056C50.285 13.7548 50.1024 12.8459 50.1024 11.879V9.2974Z" fill="#3D3D3D"/>
</svg>
