<svg width="47" height="47" viewBox="0 0 47 47" fill="none" xmlns="http://www.w3.org/2000/svg">
<path fill-rule="evenodd" clip-rule="evenodd" d="M23.5 46.0479C35.9264 46.0479 46 35.9788 46 23.5581C46 11.1374 35.9264 1.06836 23.5 1.06836C11.0736 1.06836 1 11.1374 1 23.5581C1 35.9788 11.0736 46.0479 23.5 46.0479Z" stroke="#DFDFDF"/>
<path opacity="0.7" fill-rule="evenodd" clip-rule="evenodd" d="M28.1949 19.9134C28.1949 19.9134 28.1949 19.7721 28.1949 19.9134C27.4751 19.207 26.6115 18.9245 25.7478 19.0657C26.6115 18.9245 27.0433 18.6419 27.1873 18.5006C27.1873 18.3594 27.1873 18.2181 27.0433 18.2181C26.6115 18.2181 26.1796 18.3594 25.8917 18.5006C26.3236 18.2181 26.4675 18.0768 26.4675 17.9355C26.0357 17.9355 25.6038 18.2181 25.0281 18.6419C25.172 18.3594 25.3159 18.2181 25.172 18.0768C24.8841 18.2181 24.7402 18.3594 24.5962 18.6419C24.1644 19.0657 23.8765 19.3483 23.7325 19.7721C23.1567 20.761 22.7249 21.6086 22.437 22.5975H22.2931C22.0052 22.1737 21.5733 21.7499 20.9975 21.4673C20.4218 21.0435 19.702 20.761 18.8383 20.3372C17.9747 19.9134 17.111 19.4895 16.1033 19.207C16.1033 20.1959 16.5352 21.0435 17.5428 21.6086C17.2549 21.6086 16.8231 21.6086 16.5352 21.7499C16.5352 22.5975 17.2549 23.3039 18.5504 23.5864C18.1186 23.5864 17.6868 23.7277 17.2549 24.0102C17.6868 24.8579 18.4065 25.1404 19.5581 25.1404C19.4141 25.2817 19.1262 25.423 19.1262 25.423C18.9823 25.5642 18.8383 25.8468 18.9823 26.1293C19.2702 26.5531 19.5581 26.6944 20.2778 26.6944C19.2702 27.6833 17.9747 28.2484 16.5352 28.1071C15.6715 28.1071 14.6639 27.6833 13.6563 26.8357C14.6639 28.2484 16.1033 29.3786 17.8307 30.0849C19.846 30.65 21.8612 30.7913 23.7325 30.2262C25.6038 29.6611 27.3312 28.5309 28.6267 26.9769C29.2025 26.1293 29.6344 25.2817 29.7783 24.4341C30.7859 24.4341 31.5057 24.1515 31.9375 23.5864C31.6496 23.7277 30.9299 23.7277 29.9222 23.4452C30.9299 23.3039 31.6496 23.0213 31.7936 22.4562C31.0738 22.7388 30.3541 22.7388 29.6344 22.4562C29.4904 21.4673 29.0586 20.6197 28.1949 19.9134Z" fill="#3D3D3D"/>
</svg>
